:SAMPLES-PER-SECOND 30
:FULLY-SPECIFIED
:DEGREES
538
root  -76.1747 40.0358 0.125562 57.0067 87.6344 57.5923
RightUpLeg  4.98159 -8.96103 -2.34136
RightLeg  13.6927 1.26313 0.58284
RightFoot  -18.2573 -0.234088 -1.83002
RightToes  3.49245e-010 0 -3.6325e-017
Spine  6.42031 1.45582 9.32214
Spine1  3.1797 3.25521 -6.6601
HEad  -16.5619 -3.59496 -3.28011
LeftShoulder1  -0.285537 4.2232 -33.4861
LeftArm  16.9995 16.1018 -37.9609
LeftForeArm  18.1758 -19.8802 -5.44525
LeftHand  0.00129432 7.05074 2.53028
RightShoulder  -0.813252 -5.89643 27.3831
RightArm  22.629 10.7411 52.5462
RightForeArm  2.95428 18.4175 5.54361
RightHand  -0.514909 7.4548 -5.0037
LeftUpLeg  -22.4269 3.01295 -0.275618
LeftLeg  16.4095 0.443419 0.439373
LeftFoot  -3.56605 0.487023 -6.86126
LeftToes  -5.6298e-010 8.41567e-011 -1.83319e-011
539
root  -75.4938 40.0044 0.201779 57.2868 87.4597 57.7621
RightUpLeg  6.67496 -8.99472 -2.63594
RightLeg  12.337 1.46966 0.642877
RightFoot  -18.4648 -0.238102 -1.82054
RightToes  3.49245e-010 0 -3.6325e-017
Spine  6.07051 1.55281 9.1962
Spine1  3.73594 3.5282 -7.58433
HEad  -16.4136 -3.70995 -2.77602
LeftShoulder1  -0.149112 3.88698 -32.8496
LeftArm  17.5805 17.5586 -37.7963
LeftForeArm  21.5841 -19.0297 -5.95941
LeftHand  -0.0200715 6.41914 1.29735
RightShoulder  -0.800869 -5.8452 27.588
RightArm  23.3965 11.821 53.4784
RightForeArm  1.64892 20.4177 5.05648
RightHand  -0.509285 7.4291 -4.9656
LeftUpLeg  -21.7944 3.16985 -0.775153
LeftLeg  10.4305 1.20024 0.232612
LeftFoot  -1.86275 0.55335 -6.53398
LeftToes  -5.6298e-010 8.41567e-011 -1.83319e-011
540
root  -74.73 39.8965 0.253516 53.5387 87.4345 53.7089
RightUpLeg  7.97965 -8.89685 -2.6866
RightLeg  11.6634 1.69322 0.6512
RightFoot  -19.1443 -0.23315 -1.51967
RightToes  3.49245e-010 0 -3.6325e-017
Spine  5.74452 1.66689 8.62983
Spine1  3.82515 3.57269 -7.47988
HEad  -16.2743 -4.19486 -2.65707
LeftShoulder1  -0.175581 3.95145 -33.083
LeftArm  18.2791 18.8188 -36.5969
LeftForeArm  24.2175 -18.1535 -6.58591
LeftHand  -0.029684 5.47086 0.449501
RightShoulder  -0.804554 -5.86766 27.4226
RightArm  23.9846 12.7208 54.5655
RightForeArm  1.50884 22.0211 4.86544
RightHand  -0.523826 7.01607 -5.24212
LeftUpLeg  -21.8635 2.72869 -0.711157
LeftLeg  7.06879 3.28482 -0.125455
LeftFoot  -0.838836 0.602887 -6.49601
LeftToes  -5.6298e-010 8.41567e-011 -1.83319e-011
541
root  -73.8717 39.7288 0.270097 49.3163 87.3783 49.306
RightUpLeg  9.46328 -9.0289 -2.96014
RightLeg  11.3164 2.25237 0.770354
RightFoot  -20.1106 -0.22203 -1.12168
RightToes  3.49245e-010 0 -3.6325e-017
Spine  5.58355 1.71904 8.21173
Spine1  3.6851 3.59696 -7.53677
HEad  -16.3795 -4.44673 -2.91705
LeftShoulder1  -0.225464 4.07551 -33.3135
LeftArm  17.4621 19.9147 -35.3114
LeftForeArm  26.758 -16.9908 -7.362
LeftHand  -0.030536 6.05434 0.312581
RightShoulder  -0.794835 -5.81743 27.7364
RightArm  24.5053 13.2637 55.024
RightForeArm  1.63186 23.4662 4.94701
RightHand  -0.52613 7.52772 -5.08634
LeftUpLeg  -22.1073 3.20798 -0.940711
LeftLeg  6.26724 5.67959 -0.389925
LeftFoot  -0.0883194 0.629928 -6.38667
LeftToes  -5.6298e-010 8.41567e-011 -1.83319e-011
542
root  -72.94 39.494 0.250353 42.0239 87.306 42.1828
RightUpLeg  11.2236 -8.94213 -3.113
RightLeg  11.3929 2.70527 0.584276
RightFoot  -21.3776 -0.17695 -0.378634
RightToes  3.49245e-010 0 -3.6325e-017
Spine  5.77103 1.93696 8.09993
Spine1  3.83686 3.91759 -7.7573
HEad  -17.0369 -4.52364 -2.69733
LeftShoulder1  -0.196385 4.00189 -33.2876
LeftArm  14.8871 20.7596 -34.3988
LeftForeArm  29.2583 -15.5831 -8.09473
LeftHand  -0.0380204 6.15167 -0.273325
RightShoulder  -0.870494 -6.0241 27.938
RightArm  24.7031 13.3742 55.2246
RightForeArm  1.78292 24.8816 5.23381
RightHand  -0.572834 8.33076 -5.21461
LeftUpLeg  -22.2834 4.04993 -1.44958
LeftLeg  7.99925 6.96741 0.0376083
LeftFoot  0.345779 0.513186 -4.99778
LeftToes  -5.6298e-010 8.41567e-011 -1.83319e-011
543
root  -71.891 39.2618 0.142672 41.7842 86.6825 42.0284
RightUpLeg  12.92 -9.29246 -4.43312
RightLeg  11.8193 4.18569 0.741952
RightFoot  -22.7306 -0.0772393 0.774878
RightToes  3.49245e-010 0 -3.6325e-017
Spine  5.47931 2.08767 7.95964
Spine1  4.36837 4.37821 -8.90306
HEad  -17.2107 -4.84583 -2.25908
LeftShoulder1  -0.209137 4.04117 -32.8079
LeftArm  10.245 21.2895 -33.8403
LeftForeArm  32.0017 -13.4552 -8.94937
LeftHand  -0.0534412 6.8287 -0.197823
RightShoulder  -0.964442 -6.2527 28.5325
RightArm  26.7966 13.3541 55.1225
RightForeArm  0.972305 25.6634 5.45542
RightHand  -0.66018 8.00767 -6.08076
LeftUpLeg  -22.4363 4.53082 -2.74634
LeftLeg  10.8611 6.79272 0.837112
LeftFoot  1.95387 0.262724 -2.52451
LeftToes  -5.6298e-010 8.41567e-011 -1.83319e-011
544
root  -70.7887 39.1042 0.0257806 39.4803 85.5956 39.893
RightUpLeg  14.6054 -8.952 -5.81635
RightLeg  12.2712 5.32153 0.572866
RightFoot  -23.2843 0.0749334 2.22298
RightToes  3.49245e-010 0 -3.6325e-017
Spine  5.26459 2.2738 7.06492
Spine1  4.75396 4.71498 -9.4759
HEad  -17.4558 -4.17771 -2.24306
LeftShoulder1  -0.342558 4.37603 -33.0895
LeftArm  6.70179 21.7205 -32.5669
LeftForeArm  33.7893 -11.9391 -9.20697
LeftHand  -0.0523412 6.64594 -0.840996
RightShoulder  -0.909151 -6.09501 28.5073
RightArm  28.7196 12.5208 55.1646
RightForeArm  2.10647 25.9163 5.45381
RightHand  -0.557953 8.22338 -5.11473
LeftUpLeg  -22.2769 4.71567 -4.01166
LeftLeg  13.2962 6.66894 1.49687
LeftFoot  5.49611 -0.322115 2.00639
LeftToes  -5.6298e-010 8.41567e-011 -1.83319e-011
545
root  -69.6348 38.9758 -0.0997734 45.5958 84.7384 46.2738
RightUpLeg  15.6776 -7.45327 -7.10946
RightLeg  14.3227 5.03334 0.468871
RightFoot  -23.5001 0.338604 4.6504
RightToes  3.49245e-010 0 -3.6325e-017
Spine  5.05366 2.26526 4.97515
Spine1  4.99763 4.5053 -8.75872
HEad  -17.8056 -3.02852 -2.09734
LeftShoulder1  -0.477818 4.69344 -34.0324
LeftArm  3.10285 21.1863 -31.1811
LeftForeArm  34.8568 -9.86371 -9.43314
LeftHand  -0.0553987 6.84541 -1.25127
RightShoulder  -0.849438 -5.92255 28.5341
RightArm  31.3393 11.2841 55.0171
RightForeArm  3.01714 25.159 5.22119
RightHand  -0.428606 7.34605 -4.25907
LeftUpLeg  -22.2587 4.35963 -5.50299
LeftLeg  17.0117 6.56875 2.47678
LeftFoot  5.42463 -0.690226 4.47702
LeftToes  -5.6298e-010 8.41567e-011 -1.83319e-011
546
root  -68.4746 38.876 -0.250459 55.1731 84.4187 56.3766
RightUpLeg  15.9437 -5.34263 -8.11276
RightLeg  18.6075 3.30851 0.857347
RightFoot  -22.8914 0.694393 8.4256
RightToes  3.49245e-010 0 -3.6325e-017
Spine  5.47722 2.0716 3.39539
Spine1  4.86427 4.19272 -8.63131
HEad  -17.9225 -3.16997 -1.70344
LeftShoulder1  -0.444208 4.59974 -34.2721
LeftArm  -0.714182 19.7372 -30.8232
LeftForeArm  37.2749 -7.27341 -9.34204
LeftHand  -0.0396392 6.61809 -0.395953
RightShoulder  -0.970312 -6.17268 29.7138
RightArm  34.4045 9.59295 54.0415
RightForeArm  3.23026 23.3949 4.88708
RightHand  -0.365744 6.79317 -3.83784
LeftUpLeg  -21.6538 3.07298 -6.64602
LeftLeg  20.7219 7.34518 3.39492
LeftFoot  2.46935 -0.61651 4.96317
LeftToes  -5.6298e-010 8.41567e-011 -1.83319e-011
547
root  -67.4365 38.9319 -0.404093 57.1901 83.7479 58.6711
RightUpLeg  14.1706 -2.93138 -8.7904
RightLeg  25.1541 2.42079 1.05972
RightFoot  -19.935 0.890936 13.8557
RightToes  3.49245e-010 0 -3.6325e-017
Spine  6.11069 2.3251 2.5123
Spine1  4.6932 4.46855 -9.69158
HEad  -17.5201 -3.77525 -1.65707
LeftShoulder1  -0.28879 4.23384 -33.4044
LeftArm  -2.59908 18.0903 -31.8635
LeftForeArm  38.3669 -5.73504 -9.02243
LeftHand  -0.0609517 8.04316 -0.728267
RightShoulder  -1.14111 -6.54687 30.9032
RightArm  34.9647 7.30594 52.803
RightForeArm  3.7284 20.4969 5.39757
RightHand  -0.403379 6.45603 -4.3017
LeftUpLeg  -20.0584 3.9224 -7.69295
LeftLeg  21.6534 6.77214 3.29135
LeftFoot  0.266396 -0.551327 5.39894
LeftToes  -5.6298e-010 8.41567e-011 -1.83319e-011
548
root  -66.4625 39.0318 -0.549562 54.5589 82.8526 55.8892
RightUpLeg  9.55748 -0.512712 -9.59017
RightLeg  34.9095 2.48869 1.59864
RightFoot  -13.8427 0.309803 18.4418
RightToes  3.49245e-010 0 -3.6325e-017
Spine  5.69195 2.41248 0.359459
Spine1  5.41778 4.02785 -8.54633
HEad  -17.7279 -1.80262 -2.59448
LeftShoulder1  -0.459977 4.6496 -34.0077
LeftArm  -3.06509 16.047 -32.5441
LeftForeArm  37.9708 -5.63926 -8.87532
LeftHand  -0.0666117 7.34859 -1.42994
RightShoulder  -0.825053 -5.81037 29.2047
RightArm  31.4063 5.28047 53.633
RightForeArm  7.43805 15.9298 7.46319
RightHand  -0.384133 7.89212 -3.69965
LeftUpLeg  -18.5795 4.89426 -8.49694
LeftLeg  21.7738 6.63338 3.23548
LeftFoot  -1.64438 -0.441114 5.30479
LeftToes  -5.6298e-010 8.41567e-011 -1.83319e-011
